<?xml version='1.0' encoding='UTF-8'?>
<!-- Created with Inkscape (http://www.inkscape.org/) -->
<svg xmlns:inkscape="http://www.inkscape.org/namespaces/inkscape" xmlns:sodipodi="http://sodipodi.sourceforge.net/DTD/sodipodi-0.dtd" xmlns="http://www.w3.org/2000/svg" xmlns:svg="http://www.w3.org/2000/svg" xmlns:rdf="http://www.w3.org/1999/02/22-rdf-syntax-ns#" xmlns:cc="http://creativecommons.org/ns#" xmlns:dc="http://purl.org/dc/elements/1.1/" width="240mm" height="120mm" viewBox="0 0 240 120" version="1.1" id="svg8" inkscape:version="1.4 (e7c3feb1, 2024-10-09)" sodipodi:docname="huy-pizda.svg">
  <defs id="defs2"/>
  <sodipodi:namedview id="base" pagecolor="#ffffff" bordercolor="#666666" borderopacity="1.0" inkscape:pageopacity="0.0" inkscape:pageshadow="2" inkscape:zoom="0.99437388" inkscape:cx="284.6012" inkscape:cy="182.52692" inkscape:document-units="mm" inkscape:current-layer="layer1" showgrid="false" showborder="true" width="200mm" showguides="true" inkscape:guide-bbox="true" inkscape:window-width="1288" inkscape:window-height="892" inkscape:window-x="1800" inkscape:window-y="248" inkscape:window-maximized="0" inkscape:showpageshadow="2" inkscape:pagecheckerboard="0" inkscape:deskcolor="#d1d1d1">
    <inkscape:grid type="xygrid" id="grid815" units="mm" spacingx="10" spacingy="10" empspacing="4" dotted="false" originx="0" originy="0"/>
  </sodipodi:namedview>
  <metadata id="metadata5">
    <rdf:RDF>
      <cc:Work rdf:about="">
        <dc:format>image/svg+xml</dc:format>
        <dc:type rdf:resource="http://purl.org/dc/dcmitype/StillImage"/>
        <dc:title/>
      </cc:Work>
    </rdf:RDF>
  </metadata>
  <g inkscape:label="Layer 1" inkscape:groupmode="layer" id="layer1" transform="translate(0,-177)">
    <path style="fill:none;stroke:#000000;stroke-width:0.2;stroke-linecap:round;stroke-dasharray:1.2, 1.2" d="m 47.894459,220.63717 c -1.298982,-1.55261 0.369377,-1.68474 -1.330402,2.39473 -0.296852,0.71244 0,2.38252 0,3.19296 0,9.41514 19.117514,2.37459 23.415069,4.52337 4.270672,2.13533 2.346188,5.99265 4.789445,9.04673 3.706051,4.63256 12.480603,4.57936 17.029142,1.3304 2.997552,-2.14111 7.716329,-5.11981 7.716329,-9.31281 0,-3.2773 -7.437212,-5.68073 0.266081,-8.24849 3.131047,-1.04368 7.528827,0.9736 10.643217,1.59648 5.2648,1.05296 11.6798,0.19457 16.76306,-1.3304 3.46292,-1.03888 9.86656,-2.4379 11.70753,-6.11985 0.89791,-1.79581 2.0033,-3.71633 3.72513,-5.05552 3.95283,-3.07444 9.99413,-3.99766 14.63441,-5.85377" id="path1"/>
  </g>
</svg>
